<svg xmlns="http://www.w3.org/2000/svg" viewBox="0 0 900 900" role="img" aria-labelledby="title desc">
  <title id="title">AppleCare Plus</title>
  <desc id="desc">AppleCare Plus service card image</desc>
  <rect width="900" height="900" rx="120" fill="#f8fafc"/>
  <rect x="92" y="92" width="716" height="716" rx="96" fill="#ffffff" stroke="#e2e8f0" stroke-width="6"/>
  <circle cx="450" cy="340" r="126" fill="#ef4444"/>
  <path d="M508 160c46 22 70 62 68 118-47 3-86-16-112-55 3-29 17-50 44-63Z" fill="#ef4444"/>
  <path d="M536 306c-20 24-31 52-31 84 0 38 16 70 48 96-14 33-32 61-55 84-23 22-45 34-66 34-13 0-29-4-48-12-19-8-35-12-48-12-15 0-32 4-52 13-20 8-35 12-46 12-24 0-48-15-72-46-48-61-70-130-65-207 3-42 17-76 42-102 25-26 55-39 89-39 14 0 31 4 51 13 20 8 35 12 46 12 10 0 26-5 48-14 22-9 41-13 58-12 42 3 76 20 101 51Z" fill="#ef4444"/>
  <text x="450" y="640" text-anchor="middle" font-family="Inter, Arial, sans-serif" font-size="82" font-weight="800" fill="#0f172a">AppleCare+</text>
  <text x="450" y="705" text-anchor="middle" font-family="Inter, Arial, sans-serif" font-size="30" font-weight="700" fill="#64748b">附带购买选项</text>
</svg>
